<svg width="808" height="993" viewBox="0 0 808 993" fill="none" xmlns="http://www.w3.org/2000/svg">
<path d="M370.517 480.996C362.585 480.988 354.807 483.149 348.058 487.235C341.309 491.322 335.855 497.172 332.309 504.129C307.52 552.74 254.336 608.253 216.875 635.779C212.392 639.076 208.616 643.207 205.762 647.936C202.908 652.664 201.031 657.897 200.24 663.337C199.449 668.776 199.758 674.315 201.149 679.637C202.541 684.96 204.989 689.961 208.352 694.356C211.715 698.751 215.928 702.453 220.751 705.252C225.574 708.05 230.911 709.89 236.459 710.666C242.007 711.442 247.656 711.139 253.084 709.774C258.513 708.409 263.614 706.01 268.096 702.712C313.045 669.643 376.213 605.094 408.661 541.528C411.911 535.152 413.445 528.067 413.118 520.947C412.791 513.826 410.613 506.905 406.792 500.841C402.971 494.777 397.633 489.771 391.284 486.298C384.936 482.824 377.787 480.999 370.517 480.996Z" fill="#B562FE"/>
<path d="M265.749 698.654C308.139 673.554 366.656 617.749 408.576 541.8C412.658 533.814 414.026 524.756 412.479 515.953C410.932 507.149 406.552 499.062 399.979 492.876C368.021 533.141 326.059 579.534 278.485 560.751C281.771 552.363 283.989 550.188 302.592 516.219C322.283 477.356 326.869 428.411 318.059 386.452C277.867 450.875 224.853 441.986 209.451 659.394C223.488 705.975 248.256 712.815 265.749 698.654Z" fill="#A037FC"/>
<path d="M498.517 439.162C491.14 439.157 483.888 441.027 477.468 444.591C471.048 448.154 465.68 453.289 461.888 459.493C416.896 533.015 367.936 580.789 260.352 656.131C251.583 662.74 245.773 672.428 244.146 683.155C242.518 693.881 245.201 704.808 251.627 713.633C258.054 722.459 267.724 728.495 278.6 730.468C289.475 732.442 300.708 730.2 309.931 724.215C426.987 642.242 483.797 586.311 535.061 502.519C538.944 496.174 541.041 488.933 541.138 481.534C541.235 474.135 539.329 466.843 535.614 460.402C531.899 453.962 526.508 448.602 519.991 444.871C513.474 441.139 506.064 439.17 498.517 439.162Z" fill="#B562FE"/>
<path d="M535.125 502.54C540.827 493.153 542.557 481.953 539.947 471.332C492.693 522.641 434.56 614.381 327.701 580.601C303.787 580.099 283.541 589.992 273.984 605.763C266.176 618.606 270.187 634.754 286.528 659.791C426.261 658.222 489.109 604.174 535.125 502.54Z" fill="#A037FC"/>
<path d="M637.611 449.621C626.688 449.621 615.787 453.699 607.445 461.878C548.608 519.545 482.197 572.799 378.155 645.672C369.144 652.193 363.11 661.926 361.354 672.771C359.598 683.615 362.261 694.702 368.769 703.638C375.276 712.575 385.106 718.644 396.138 720.537C407.169 722.43 418.517 719.994 427.733 713.756C535.851 638.017 605.419 582.19 667.776 521.051C673.749 515.202 677.817 507.747 679.467 499.629C681.117 491.512 680.273 483.097 677.044 475.45C673.814 467.803 668.344 461.267 661.325 456.669C654.305 452.071 646.052 449.618 637.611 449.621Z" fill="#B562FE"/>
<path d="M679.957 494.926C635.051 499.151 591.424 510.383 549.909 528.895L513.259 545.231C475.477 575.706 431.893 608.064 378.176 645.672C369.166 652.193 363.131 661.926 361.375 672.771C359.619 683.615 362.282 694.702 368.79 703.638C375.297 712.575 385.127 718.644 396.159 720.537C407.19 722.43 418.538 719.994 427.755 713.756C535.872 638.017 605.44 582.19 667.797 521.051C675.221 513.751 679.147 504.443 679.957 494.926Z" fill="#A037FC"/>
<path d="M754.475 569.557C754.475 544.54 733.781 524.272 708.267 524.272C654.357 524.272 601.067 535.588 552 557.467L490.709 584.784C459.555 598.673 425.788 606.034 391.566 606.398C357.345 606.762 323.422 600.12 291.968 586.897C285.742 584.291 280.149 580.423 275.557 575.545C270.966 570.668 267.48 564.892 265.33 558.598C263.179 552.304 262.413 545.636 263.081 539.03C263.749 532.425 265.836 526.034 269.205 520.277L294.443 476.979C315.958 440.036 323.126 396.711 314.624 354.993C313.525 349.61 311.325 344.5 308.158 339.972C304.991 335.444 300.922 331.592 296.196 328.646C291.47 325.701 286.185 323.725 280.659 322.835C275.133 321.946 269.481 322.163 264.043 323.472C256.981 325.166 251.605 330.897 249.6 337.737L231.808 398.772L114.453 536.843C86.7492 569.45 49.1827 592.569 7.18933 602.856L0 604.613V811.416L22.9547 819.134C22.9547 819.134 163.776 767.052 191.147 765.148L395.051 750.548C430.848 748.038 612.352 652.784 612.352 652.784C636.928 639.397 758.208 626.764 758.208 604.634C758.208 591.979 754.475 568.594 754.475 569.557Z" fill="#B562FE"/>
<path d="M754.176 566.754C754.24 567.695 754.453 568.594 754.453 569.557C754.455 580.281 750.575 590.657 743.504 598.839C736.433 607.02 726.63 612.476 715.84 614.235L668.352 621.995C640.619 626.534 613.888 635.695 589.312 649.082L482.069 707.502C450.706 724.61 415.897 734.764 380.096 737.246L177.088 751.469C149.736 753.408 122.903 759.791 97.6853 770.357L0 811.416V846.556L111.253 799.807C136.458 789.204 163.298 782.819 190.656 780.919L393.664 766.696C429.465 764.214 464.274 754.061 495.637 736.953L602.88 678.532C627.449 665.129 654.185 655.967 681.92 651.445L729.408 643.685C737.804 642.305 745.648 638.677 752.073 633.201C758.498 627.726 763.255 620.615 765.817 612.655C768.38 604.696 768.649 596.196 766.595 588.096C764.54 579.996 760.243 572.61 754.176 566.754Z" fill="#A037FC"/>
<path d="M287.02 926.6C288.34 926.84 289.96 927.08 291.88 927.32C293.8 927.44 295.6 927.5 297.28 927.5C301.36 927.5 305.08 926.9 308.44 925.7C311.92 924.5 314.86 922.64 317.26 920.12C319.78 917.6 321.7 914.36 323.02 910.4C324.46 906.32 325.18 901.46 325.18 895.82C325.18 885.02 322.66 876.92 317.62 871.52C312.58 866 305.86 863.24 297.46 863.24C295.78 863.24 294.04 863.3 292.24 863.42C290.56 863.54 288.82 863.72 287.02 863.96V926.6ZM297.1 952.88C295.06 952.88 292.72 952.82 290.08 952.7C287.44 952.58 284.68 952.34 281.8 951.98C279.04 951.62 276.22 951.14 273.34 950.54C270.58 950.06 268 949.34 265.6 948.38C259 945.86 255.7 941.48 255.7 935.24V851.18C255.7 848.66 256.36 846.74 257.68 845.42C259.12 843.98 261.04 842.84 263.44 842C268.6 840.32 274.06 839.24 279.82 838.76C285.58 838.16 290.74 837.86 295.3 837.86C304.66 837.86 313.12 839 320.68 841.28C328.36 843.56 334.9 847.1 340.3 851.9C345.82 856.58 350.08 862.52 353.08 869.72C356.08 876.92 357.58 885.44 357.58 895.28C357.58 904.88 356.14 913.28 353.26 920.48C350.38 927.56 346.24 933.56 340.84 938.48C335.56 943.28 329.2 946.88 321.76 949.28C314.32 951.68 306.1 952.88 297.1 952.88ZM370.183 895.28C370.183 885.92 371.623 877.64 374.503 870.44C377.503 863.24 381.523 857.24 386.563 852.44C391.723 847.52 397.723 843.8 404.563 841.28C411.523 838.76 419.023 837.5 427.063 837.5C435.103 837.5 442.543 838.76 449.383 841.28C456.343 843.8 462.403 847.52 467.563 852.44C472.723 857.24 476.743 863.24 479.623 870.44C482.623 877.64 484.123 885.92 484.123 895.28C484.123 904.64 482.683 912.98 479.803 920.3C476.923 927.5 472.903 933.56 467.743 938.48C462.703 943.28 456.703 946.94 449.743 949.46C442.783 951.98 435.223 953.24 427.063 953.24C418.903 953.24 411.343 951.98 404.383 949.46C397.423 946.82 391.423 943.04 386.383 938.12C381.343 933.2 377.383 927.14 374.503 919.94C371.623 912.74 370.183 904.52 370.183 895.28ZM402.583 895.28C402.583 906.2 404.803 914.36 409.243 919.76C413.683 925.16 419.623 927.86 427.063 927.86C434.623 927.86 440.623 925.16 445.063 919.76C449.503 914.36 451.723 906.2 451.723 895.28C451.723 884.48 449.503 876.38 445.063 870.98C440.743 865.58 434.803 862.88 427.243 862.88C419.803 862.88 413.803 865.58 409.243 870.98C404.803 876.26 402.583 884.36 402.583 895.28ZM502.145 857.66C502.145 852.5 503.645 848.42 506.645 845.42C509.645 842.42 513.725 840.92 518.885 840.92H578.285C579.125 842.24 579.845 843.98 580.445 846.14C581.165 848.3 581.525 850.58 581.525 852.98C581.525 857.54 580.505 860.78 578.465 862.7C576.545 864.62 573.965 865.58 570.725 865.58H532.745V882.32H573.245C574.085 883.64 574.805 885.38 575.405 887.54C576.125 889.58 576.485 891.8 576.485 894.2C576.485 898.76 575.525 902 573.605 903.92C571.685 905.84 569.105 906.8 565.865 906.8H532.745V925.7H579.005C579.845 927.02 580.565 928.76 581.165 930.92C581.885 933.08 582.245 935.36 582.245 937.76C582.245 942.32 581.225 945.62 579.185 947.66C577.265 949.58 574.685 950.54 571.445 950.54H518.885C513.725 950.54 509.645 949.04 506.645 946.04C503.645 943.04 502.145 938.96 502.145 933.8V857.66ZM650.481 941C649.521 941.48 647.721 941.9 645.081 942.26C642.561 942.5 640.101 942.62 637.701 942.62C632.781 942.62 629.061 941.84 626.541 940.28C624.021 938.6 622.761 935.12 622.761 929.84V910.04H595.581C594.741 908.72 594.021 906.98 593.421 904.82C592.941 902.66 592.701 900.5 592.701 898.34C592.701 894.02 593.661 890.9 595.581 888.98C597.501 886.94 600.081 885.92 603.321 885.92H622.761V855.68C623.961 855.32 625.761 854.96 628.161 854.6C630.681 854.12 633.141 853.88 635.541 853.88C640.341 853.88 644.001 854.72 646.521 856.4C649.161 858.08 650.481 861.62 650.481 867.02V885.92H677.121C677.721 887.36 678.321 889.16 678.921 891.32C679.641 893.36 680.001 895.52 680.001 897.8C680.001 902 679.041 905.12 677.121 907.16C675.201 909.08 672.681 910.04 669.561 910.04H650.481V941Z" fill="#A037FC"/>
<path d="M785 127.385C785 113.337 772.94 101.947 758.063 101.947H712.081C723.981 90.8627 731.597 76.332 731.597 58.4363C731.597 36.4011 718.196 12.4644 680.578 12.4644C631.08 12.4644 589.731 62.2328 570.302 90.1314C550.86 62.2392 508.245 12.4707 458.754 12.4707C421.136 12.4707 407.734 36.4074 407.734 58.4427C407.734 76.3316 415.56 90.8691 427.702 101.953H380.938C366.062 101.953 354.001 113.343 354.001 127.391V203.532H381.174V369.098C381.174 383.146 393.235 394.536 408.112 394.536H731.227C746.103 394.536 758.164 383.146 758.164 369.098V203.525H785.001V127.385H785ZM680.578 37.9082C697.232 37.9082 704.66 44.516 704.66 58.4431C704.66 86.6978 671.264 101.941 639.855 101.941H594.256C613.395 75.0979 647.081 37.9082 680.578 37.9082ZM458.754 37.9086C492.257 37.9086 527.215 75.0983 546.354 101.935H500.742C469.333 101.935 434.671 86.2971 434.671 58.0424C434.671 44.1217 442.099 37.9086 458.754 37.9086ZM758.063 178.088H582.969V127.385H758.063V178.088ZM380.938 127.385H556.032V178.088H380.938V127.385ZM408.111 203.525H556.032V369.092H408.111V203.525ZM731.233 369.092H582.969V203.525H731.233V369.092Z" fill="#A037FC"/>
</svg>
